<?xml version="1.0" encoding="UTF-8"?>
<svg version="1.1" xmlns="http://www.w3.org/2000/svg" width="512" height="512">
<path d="M0 0 C4.51334145 4.64229406 5.52925179 9.58854318 5.52738953 15.83677673 C5.51190567 16.63185135 5.49642181 17.42692596 5.48046875 18.24609375 C5.47622391 19.07963882 5.47197906 19.9131839 5.46760559 20.77198792 C5.45093314 23.41083311 5.41330358 26.04888916 5.375 28.6875 C5.35993833 30.48631703 5.34625253 32.28514613 5.33398438 34.08398438 C5.30106728 38.47295615 5.24936567 42.86134469 5.1875 47.25 C0.2375 47.25 -4.7125 47.25 -9.8125 47.25 C-10.1425 46.26 -10.4725 45.27 -10.8125 44.25 C-11.410625 44.724375 -12.00875 45.19875 -12.625 45.6875 C-17.50395211 49.1724658 -23.05594769 48.70359653 -28.8125 48.25 C-34.19092846 46.39199744 -37.27331756 43.32836487 -39.8125 38.25 C-40.42431063 32.7637637 -40.51869969 27.46600438 -37.3046875 22.7890625 C-32.91347427 18.2599054 -27.85416136 16.2276158 -21.6015625 15.9453125 C-17.66172293 15.88906645 -13.74589626 16.03039351 -9.8125 16.25 C-10.54717909 13.42084106 -11.36790157 10.80087084 -12.8125 8.25 C-16.06606225 7.00395488 -17.80623406 6.95083986 -21.125 7.9375 C-23.26851382 9.32622388 -23.26851382 9.32622388 -23.8125 13.25 C-28.4325 13.25 -33.0525 13.25 -37.8125 13.25 C-37.8125 6.96977651 -37.68673699 5.80222846 -33.8125 1.25 C-23.33334069 -6.73821161 -11.14704285 -6.93593777 0 0 Z M-24.8125 29.25 C-25.5625 32.25 -25.5625 32.25 -24.8125 35.25 C-23.35208234 37.36670357 -23.35208234 37.36670357 -20.8125 38.25 C-16.57961284 38.25 -14.55145884 37.91316819 -11.375 35.0625 C-9.58374015 31.83823227 -9.47464372 29.88195497 -9.8125 26.25 C-17.96514185 25.54548867 -17.96514185 25.54548867 -24.8125 29.25 Z " fill="#000000" transform="translate(77.8125,264.75)"/>
<path d="M0 0 C5.03612598 2.87895801 8.1350739 6.83144153 10.5625 12.0625 C11.5625 17.0625 11.5625 17.0625 11.5625 29.0625 C0.6725 29.0625 -10.2175 29.0625 -21.4375 29.0625 C-18.75432217 37.66896694 -18.75432217 37.66896694 -15.4375 39.0625 C-9.60222936 39.41221507 -9.60222936 39.41221507 -4.4375 37.0625 C-3.7775 36.0725 -3.1175 35.0825 -2.4375 34.0625 C0.8203125 33.76953125 0.8203125 33.76953125 4.6875 33.875 C6.60949219 33.91560547 6.60949219 33.91560547 8.5703125 33.95703125 C9.55773437 33.99183594 10.54515625 34.02664063 11.5625 34.0625 C10.1755918 39.95685986 8.70505396 43.825741 3.5703125 47.48046875 C-4.18635626 52.02002735 -12.13482934 52.20936278 -20.86328125 50.62109375 C-26.89418569 48.7591252 -31.4745735 44.56374832 -34.5390625 39.09765625 C-37.8376856 30.82027024 -37.81803297 20.79034423 -34.6875 12.5 C-31.52040735 5.8163424 -28.09551215 2.14997986 -21.34765625 -0.98046875 C-14.17885883 -3.33799273 -6.91846323 -2.98586308 0 0 Z M-18.375 11.3125 C-20.8375 14.02291667 -20.8375 14.02291667 -20.4375 18.0625 C-14.8275 18.0625 -9.2175 18.0625 -3.4375 18.0625 C-4.59301726 11.15774241 -4.59301726 11.15774241 -8.4375 9.0625 C-12.91879276 8.48159168 -14.73859843 8.52717114 -18.375 11.3125 Z " fill="#000000" transform="translate(230.4375,261.9375)"/>
<path d="M0 0 C1.24210545 0.64223765 2.4772869 1.2995149 3.6875 2 C3.6875 2.66 3.6875 3.32 3.6875 4 C4.3475 4 5.0075 4 5.6875 4 C12.1498504 12.27988645 11.6875 18.27198642 11.6875 29 C0.7975 29 -10.0925 29 -21.3125 29 C-19.9925 31.97 -18.6725 34.94 -17.3125 38 C-13.67467368 39.21260877 -11.13514001 39.39544552 -7.3125 39 C-6.631875 38.175 -5.95125 37.35 -5.25 36.5 C-0.37544182 32.35143985 5.54204328 33.6257841 11.6875 34 C10.49885606 40.4715059 7.81300348 43.91858057 2.6875 48 C-4.25374725 52.39140132 -12.83879808 51.97368736 -20.75 50.56640625 C-27.31112521 48.50323992 -31.84475946 43.80142515 -34.98046875 37.81640625 C-36.66455818 33.6336497 -36.85040146 29.65797701 -36.8125 25.1875 C-36.80605469 24.39504883 -36.79960937 23.60259766 -36.79296875 22.78613281 C-36.55825029 15.24734638 -34.94435432 9.48540858 -29.375 4.140625 C-20.76991035 -2.70433267 -10.27354936 -4.59134852 0 0 Z M-18.1875 11.25 C-20.59219402 13.98182625 -20.59219402 13.98182625 -21.3125 18 C-15.3725 18 -9.4325 18 -3.3125 18 C-4.46801726 11.09524241 -4.46801726 11.09524241 -8.3125 9 C-12.77244487 8.421859 -14.59552544 8.43888947 -18.1875 11.25 Z " fill="#000000" transform="translate(462.3125,262)"/>
<path d="M0 0 C5.07125825 3.34242021 7.20767287 7.02439403 8.75 12.8125 C9.00523581 15.7828215 8.98374512 18.73152795 8.9453125 21.7109375 C8.9424826 22.54589752 8.93965271 23.38085754 8.93673706 24.24111938 C8.92560301 26.89006291 8.90051127 29.53865984 8.875 32.1875 C8.86496143 33.99088051 8.85583712 35.79426636 8.84765625 37.59765625 C8.8256859 42.00273633 8.79120321 46.40755953 8.75 50.8125 C3.8 50.8125 -1.15 50.8125 -6.25 50.8125 C-6.29898437 48.48832031 -6.34796875 46.16414063 -6.3984375 43.76953125 C-6.45250732 41.5089699 -6.50979112 39.24851115 -6.56738281 36.98803711 C-6.60557409 35.42170919 -6.64044394 33.85529651 -6.671875 32.28881836 C-6.71774071 30.032082 -6.77569769 27.77592417 -6.8359375 25.51953125 C-6.84748871 24.82350296 -6.85903992 24.12747467 -6.87094116 23.41035461 C-6.98962749 19.46618487 -7.53121304 16.37370596 -9.25 12.8125 C-10.70792884 12.75850264 -12.16642712 12.71970823 -13.625 12.6875 C-14.84316406 12.65269531 -14.84316406 12.65269531 -16.0859375 12.6171875 C-18.46342243 12.59879949 -18.46342243 12.59879949 -20.25 14.8125 C-21.58380838 18.47764833 -21.47154291 22.34719754 -21.56640625 26.203125 C-21.58718735 26.90773865 -21.60796844 27.61235229 -21.62937927 28.33831787 C-21.69453837 30.57961681 -21.75360248 32.82102864 -21.8125 35.0625 C-21.85571726 36.58594897 -21.89933257 38.10938671 -21.94335938 39.6328125 C-22.05093115 43.35926119 -22.1502535 47.0858008 -22.25 50.8125 C-27.2 50.8125 -32.15 50.8125 -37.25 50.8125 C-37.25 33.9825 -37.25 17.1525 -37.25 -0.1875 C-32.3 -0.1875 -27.35 -0.1875 -22.25 -0.1875 C-21.92 1.4625 -21.59 3.1125 -21.25 4.8125 C-20.528125 4.19375 -19.80625 3.575 -19.0625 2.9375 C-13.07462905 -1.58666917 -7.05876693 -2.57916484 0 0 Z " fill="#000000" transform="translate(286.25,261.1875)"/>
<path d="M0 0 C4.95 0 9.9 0 15 0 C15.02505615 1.11036621 15.0501123 2.22073242 15.07592773 3.36474609 C15.16994915 7.47603319 15.27018257 11.58714923 15.37231445 15.69824219 C15.4156833 17.47912603 15.45735694 19.26005198 15.49731445 21.04101562 C15.5549699 23.59778548 15.6186777 26.15434298 15.68359375 28.7109375 C15.70030624 29.50994476 15.71701874 30.30895203 15.73423767 31.13217163 C15.75392991 35.19806368 15.75392991 35.19806368 17 39 C18.43489809 39.13536774 19.87347107 39.23217143 21.3125 39.3125 C22.51326172 39.39951172 22.51326172 39.39951172 23.73828125 39.48828125 C26.18349216 39.21123166 26.18349216 39.21123166 27.609375 36.96484375 C29.32903126 33.29849797 29.47636814 30.04582723 29.51171875 26.07421875 C29.52966995 25.32662796 29.54762115 24.57903717 29.56611633 23.80879211 C29.62003849 21.43508442 29.65405554 19.06157568 29.6875 16.6875 C29.72068921 15.07223805 29.75518035 13.45700229 29.79101562 11.84179688 C29.87819258 7.89450553 29.93841042 3.94810429 30 0 C34.95 0 39.9 0 45 0 C45 16.83 45 33.66 45 51 C40.05 51 35.1 51 30 51 C29.67 49.68 29.34 48.36 29 47 C28.236875 47.639375 27.47375 48.27875 26.6875 48.9375 C21.8100327 52.68067258 16.9221998 52.50814507 11 52 C6.26170231 50.33282118 3.7988062 48.14637955 1 44 C0.08964496 41.26893489 -0.12215713 39.70106761 -0.11352539 36.89575195 C-0.11344986 36.07512772 -0.11337433 35.25450348 -0.11329651 34.40901184 C-0.10813522 33.52767075 -0.10297394 32.64632965 -0.09765625 31.73828125 C-0.0962413 30.83248825 -0.09482635 29.92669525 -0.09336853 28.99345398 C-0.08777001 26.09976909 -0.07521781 23.20616151 -0.0625 20.3125 C-0.05748481 18.35091258 -0.05292193 16.38932394 -0.04882812 14.42773438 C-0.03780107 9.61845979 -0.02053747 4.809243 0 0 Z " fill="#000000" transform="translate(338,261)"/>
<path d="M0 0 C3.02435853 2.77232865 5.65891374 6.09865815 7 10 C7 11.98 7 13.96 7 16 C2.38 16 -2.24 16 -7 16 C-7.99 14.02 -8.98 12.04 -10 10 C-12.84083641 8.57958179 -14.85477278 8.68547728 -18 9 C-20.30275556 10.8670991 -21.67823871 12.35647741 -23 15 C-23.12463392 17.63760152 -23.18516573 20.2372717 -23.1875 22.875 C-23.19974609 23.59558594 -23.21199219 24.31617188 -23.22460938 25.05859375 C-23.23984195 30.34884025 -23.23984195 30.34884025 -21 35 C-17.81937404 36.59031298 -14.46281425 36.39818809 -11 36 C-8.73247024 34.48831349 -8.16061767 33.53003832 -7.375 30.9375 C-6 29 -6 29 -2.7421875 28.390625 C-1.46601562 28.34421875 -0.18984375 28.2978125 1.125 28.25 C2.40632813 28.19328125 3.68765625 28.1365625 5.0078125 28.078125 C5.99523437 28.05234375 6.98265625 28.0265625 8 28 C7.21124004 35.85540532 5.04310347 40.81486801 -1 46 C-7.34471391 50.14348664 -14.63077306 49.8443052 -22 49 C-29.18370844 47.0093338 -33.14015096 43.39623665 -36.94140625 37.0859375 C-40.64021267 29.79751453 -40.03931424 18.98473646 -38.38671875 11.05859375 C-35.75630086 4.39564095 -30.50351778 -0.16861571 -24.25 -3.4375 C-15.63375473 -4.92877322 -7.47489479 -4.9934748 0 0 Z " fill="#000001" transform="translate(129,264)"/>
<path d="M0 0 C5.39538116 3.45768513 8.84329839 7.91003883 10.25390625 14.1640625 C10.43953125 15.4840625 10.62515625 16.8040625 10.81640625 18.1640625 C5.86640625 18.1640625 0.91640625 18.1640625 -4.18359375 18.1640625 C-4.84359375 16.5140625 -5.50359375 14.8640625 -6.18359375 13.1640625 C-9.67483392 10.83656905 -11.07581626 10.66106934 -15.18359375 11.1640625 C-18.03139994 13.39612681 -19.03357041 14.71399249 -20.18359375 18.1640625 C-20.27924689 20.45411112 -20.3134395 22.7470222 -20.30859375 25.0390625 C-20.31117188 26.25335938 -20.31375 27.46765625 -20.31640625 28.71875 C-20.20243673 31.67525345 -19.87062476 34.29598065 -19.18359375 37.1640625 C-15.1605579 38.50507445 -11.38495461 38.8851916 -7.18359375 38.1640625 C-5.06625187 35.91454068 -5.06625187 35.91454068 -4.18359375 33.1640625 C-3.68859375 32.1740625 -3.68859375 32.1740625 -3.18359375 31.1640625 C1.43640625 31.1640625 6.05640625 31.1640625 10.81640625 31.1640625 C10.2643768 38.06443065 8.04113958 42.36384652 2.87890625 46.9140625 C-4.0164091 51.98000847 -10.84567937 52.03600126 -19.18359375 51.1640625 C-25.31021105 49.35355818 -29.73568201 46.46142784 -33.24609375 41.10546875 C-35.77611196 35.8662227 -36.54390984 31.06456256 -36.49609375 25.2890625 C-36.4904541 24.58015869 -36.48481445 23.87125488 -36.47900391 23.14086914 C-36.29554121 15.24924842 -34.41023137 9.53946848 -28.96484375 3.70703125 C-21.16964346 -3.04539005 -9.38062244 -4.19092527 0 0 Z " fill="#000001" transform="translate(178.18359375,261.8359375)"/>
<path d="M0 0 C0 4.95 0 9.9 0 15 C2.97 15 5.94 15 9 15 C9 18.96 9 22.92 9 27 C6.03 27 3.06 27 0 27 C0.13811922 31.31278385 0.28678109 35.62513953 0.4375 39.9375 C0.47681641 41.16919922 0.51613281 42.40089844 0.55664062 43.66992188 C0.59853516 44.83974609 0.64042969 46.00957031 0.68359375 47.21484375 C0.72025146 48.29886475 0.75690918 49.38288574 0.79467773 50.49975586 C0.72364265 52.939263 0.72364265 52.939263 2 54 C4.67058851 54.14115161 7.32432238 54.04247107 10 54 C9.88652381 55.97986082 9.7589065 57.95891598 9.625 59.9375 C9.55539062 61.03964844 9.48578125 62.14179688 9.4140625 63.27734375 C9.27742188 64.17582031 9.14078125 65.07429688 9 66 C4.63211995 68.18394002 -1.45995107 67.54694484 -6.140625 66.5390625 C-10.72115679 64.84625727 -12.79519354 62.24001242 -15 58 C-15.94789565 54.3020799 -16.11718824 50.85170682 -16.09765625 47.04296875 C-16.09282227 45.37524414 -16.09282227 45.37524414 -16.08789062 43.67382812 C-16.07951172 42.52333984 -16.07113281 41.37285156 -16.0625 40.1875 C-16.05798828 39.01767578 -16.05347656 37.84785156 -16.04882812 36.64257812 C-16.0370693 33.76166642 -16.02063426 30.88085956 -16 28 C-17.65 27.67 -19.3 27.34 -21 27 C-21 23.04 -21 19.08 -21 15 C-19.35 14.67 -17.7 14.34 -16 14 C-16 11.36 -16 8.72 -16 6 C-13.7101766 4.9955866 -11.4183401 3.99632388 -9.125 3 C-8.14853516 2.57074219 -8.14853516 2.57074219 -7.15234375 2.1328125 C-2.2265625 0 -2.2265625 0 0 0 Z " fill="#000001" transform="translate(321,246)"/>
<path d="M0 0 C5.93596121 1.91482094 11.75340539 4.01787062 17.53515625 6.35546875 C18.29928329 6.66196854 19.06341034 6.96846832 19.85069275 7.28425598 C22.25562429 8.24954736 24.65907969 9.21845291 27.0625 10.1875 C28.70758539 10.8485485 30.35276688 11.50935789 31.99804688 12.16992188 C35.99981231 13.77719064 40.00025952 15.38769905 44 17 C44 20.96 44 24.92 44 29 C35.93305617 32.74834717 27.77440627 36.20202447 19.51757812 39.50415039 C17.47295684 40.32333493 15.43180747 41.15080543 13.390625 41.97851562 C12.08353547 42.5031081 10.77625102 43.02721523 9.46875 43.55078125 C8.29763672 44.02169189 7.12652344 44.49260254 5.91992188 44.9777832 C3 46 3 46 0 46 C0 41.38 0 36.76 0 32 C2.25650391 31.15115234 2.25650391 31.15115234 4.55859375 30.28515625 C6.51828274 29.54441256 8.47791526 28.80351944 10.4375 28.0625 C11.92733398 27.50272461 11.92733398 27.50272461 13.44726562 26.93164062 C14.86362305 26.39506836 14.86362305 26.39506836 16.30859375 25.84765625 C17.18314209 25.51773682 18.05769043 25.18781738 18.95874023 24.84790039 C20.95717752 24.17007683 20.95717752 24.17007683 22 23 C21.36908447 22.76289307 20.73816895 22.52578613 20.08813477 22.28149414 C17.24519405 21.21129388 14.40383542 20.13695457 11.5625 19.0625 C10.07266602 18.50272461 10.07266602 18.50272461 8.55273438 17.93164062 C7.13637695 17.39506836 7.13637695 17.39506836 5.69140625 16.84765625 C4.81685791 16.51773682 3.94230957 16.18781738 3.04125977 15.84790039 C1 15 1 15 0 14 C-0.07271741 11.64686445 -0.08370868 9.29166332 -0.0625 6.9375 C-0.05347656 5.64714844 -0.04445313 4.35679687 -0.03515625 3.02734375 C-0.02355469 2.02832031 -0.01195312 1.02929688 0 0 Z " fill="#A000FC" transform="translate(291,198)"/>
<path d="M0 0 C5.28 0 10.56 0 16 0 C16.33 1.65 16.66 3.3 17 5 C17.78375 4.360625 18.5675 3.72125 19.375 3.0625 C24.03715492 -0.60062172 24.05985579 0 31 0 C31 4.95 31 9.9 31 15 C26.84960938 15.63476562 26.84960938 15.63476562 22.69921875 16.26953125 C19.67195936 17.08877511 18.80991091 17.48220129 17 20 C16.49141092 23.29271596 16.49141092 23.29271596 16.48828125 27.07421875 C16.46135445 28.09996758 16.46135445 28.09996758 16.43388367 29.1464386 C16.37977925 31.32673 16.3458866 33.50680256 16.3125 35.6875 C16.2793268 37.16734817 16.24483713 38.64716745 16.20898438 40.12695312 C16.12157644 43.75133351 16.06151737 47.37471773 16 51 C10.72 51 5.44 51 0 51 C0 34.17 0 17.34 0 0 Z " fill="#000000" transform="translate(392,261)"/>
</svg>
