<?xml version="1.0" encoding="UTF-8"?>
<svg version="1.1" xmlns="http://www.w3.org/2000/svg" width="225" height="225">
<path d="M0 0 C74.25 0 148.5 0 225 0 C225 74.25 225 148.5 225 225 C150.75 225 76.5 225 0 225 C0 150.75 0 76.5 0 0 Z " fill="#FEFEFE" transform="translate(0,0)"/>
<path d="M0 0 C11.93976086 7.04820962 20.09115078 17.82779565 23.61328125 31.35546875 C25.85308185 46.67208495 22.93395294 60.28543222 14 73 C13.34064453 73.95326172 13.34064453 73.95326172 12.66796875 74.92578125 C6.30650703 83.19384821 -3.96487314 88.65415437 -14 91 C-20.04101648 91.61163354 -26.12699779 91.38047898 -32.1875 91.25 C-33.8235457 91.22989199 -35.45961542 91.21164887 -37.09570312 91.1953125 C-41.06489585 91.15511814 -45.03068163 91.07678424 -49 91 C-49 86.05 -49 81.1 -49 76 C-46.90140625 75.98582031 -44.8028125 75.97164063 -42.640625 75.95703125 C-40.5651137 75.92625086 -38.48990667 75.88720507 -36.41455078 75.84741211 C-34.99311403 75.82448571 -33.57151352 75.80989711 -32.14990234 75.80444336 C-20.9867123 75.75323607 -10.7005671 74.4585443 -2 66.75 C4.51792172 59.48490188 6.38900229 50.71833767 6.2734375 41.23046875 C5.51860309 32.31263939 1.80461293 24.82859774 -5 19 C-13.43126767 13.57877368 -22.19597926 13.14139941 -32 14 C-40.36988968 16.36300316 -45.83040043 21.82041045 -50.28125 29.09375 C-55.61634667 39.61151201 -54.20283831 52.98918084 -54.41499138 64.52136993 C-54.46600569 67.26563015 -54.52260791 70.00972625 -54.58070374 72.75384521 C-54.74500868 80.54781968 -54.90173446 88.34192585 -55.04956055 96.13623047 C-55.14084872 100.92890407 -55.24040073 105.72135118 -55.34482002 110.5137558 C-55.38258225 112.32025739 -55.41731231 114.12682543 -55.4487133 115.93344879 C-55.8549959 139.21255962 -57.72091708 158.84541412 -74.3125 176.75 C-85.96034559 187.76394923 -100.02199714 192.39230902 -115.81640625 192.21484375 C-131.32148149 191.16848898 -142.64737696 183.98638238 -153.0078125 172.83984375 C-164.57652959 159.04252099 -166.26235158 142.28227119 -165 125 C-163.47825869 115.80576658 -159.46671263 108.45248431 -154 101 C-153.24976563 99.92105469 -153.24976563 99.92105469 -152.484375 98.8203125 C-145.54488637 89.81299645 -133.90406179 84.38079952 -123 82 C-121.95972656 81.72414063 -120.91945312 81.44828125 -119.84765625 81.1640625 C-106.09482645 77.96436464 -92.02994671 78.74404827 -78 79 C-78 82.96 -78 86.92 -78 91 C-79.29510498 91.0093457 -80.59020996 91.01869141 -81.92456055 91.02832031 C-86.78736189 91.06857118 -91.64955364 91.13442326 -96.51196289 91.20751953 C-98.60563247 91.23552741 -100.69940383 91.25684095 -102.79321289 91.27099609 C-119.05243324 91.38743835 -133.94188085 91.98283119 -147 103 C-156.78523681 113.52176001 -160.66111007 123.64555272 -160.54150391 137.79663086 C-160.01323893 151.33442657 -154.55938192 162.05172885 -144.6875 171.25 C-134.44946377 179.53245627 -122.92665119 182.05551659 -110 181 C-98.66723 179.02504944 -87.62273773 173.09055409 -80.4375 163.9375 C-74.00890595 154.20773603 -71.6996289 145.58143115 -71.72875977 133.9909668 C-71.72091965 132.3602977 -71.72091965 132.3602977 -71.71292114 130.69668579 C-71.70270664 128.34393946 -71.6969052 125.9911707 -71.69503975 123.63840294 C-71.69136668 119.90904139 -71.67461338 116.17994351 -71.65428162 112.45063782 C-71.60594228 103.18751428 -71.5742652 93.92435528 -71.55297852 84.66113281 C-71.53495897 76.83157259 -71.5054809 69.00221737 -71.45893669 61.17276955 C-71.44732016 58.70536101 -71.44135664 56.2379189 -71.44125557 53.77048302 C-71.44106258 50.31252961 -71.42272685 46.85509001 -71.40063477 43.3972168 C-71.40521194 42.38753342 -71.40978912 41.37785004 -71.414505 40.33757019 C-71.28962408 27.98348354 -67.25987321 17.95674969 -58.96484375 8.73828125 C-43.50391282 -5.99309577 -18.9800165 -10.65681254 0 0 Z " fill="#FD5F09" transform="translate(184,20)"/>
</svg>
