<?xml version="1.0" encoding="UTF-8"?>
<svg version="1.1" xmlns="http://www.w3.org/2000/svg" width="500" height="500">
<path d="M0 0 C165 0 330 0 500 0 C500 165 500 330 500 500 C335 500 170 500 0 500 C0 335 0 170 0 0 Z " fill="#FEFEFE" transform="translate(0,0)"/>
<path d="M0 0 C-1.55463729 3.31915062 -3.45070344 6.27634956 -5.5 9.3125 C-6.2115625 10.37082031 -6.923125 11.42914063 -7.65625 12.51953125 C-8.03652344 13.08365723 -8.41679687 13.6477832 -8.80859375 14.22900391 C-10.88286161 17.31235208 -12.94030972 20.40690385 -15 23.5 C-15.8514877 24.77739361 -16.70304956 26.0547378 -17.5546875 27.33203125 C-18.36979167 28.5546875 -19.18489583 29.77734375 -20 31 C-30.42265828 46.63398743 -40.84531657 62.26797485 -51.26797485 77.90196228 C-51.6487619 78.47314285 -52.02954895 79.04432343 -52.421875 79.6328125 C-52.80548187 80.20822281 -53.18908875 80.78363312 -53.58432007 81.3764801 C-53.97141144 81.95711716 -54.35850281 82.53775421 -54.75732422 83.13598633 C-55.54654948 84.31982422 -56.33577474 85.50366211 -57.125 86.6875 C-57.51753967 87.27630951 -57.91007935 87.86511902 -58.31451416 88.47177124 C-58.70459656 89.05689484 -59.09467896 89.64201843 -59.49658203 90.24487305 C-59.88075287 90.8211293 -60.26492371 91.39738556 -60.66073608 91.99110413 C-63.40142822 96.10214233 -66.14212036 100.21318054 -68.8828125 104.32421875 C-69.28483887 104.9272583 -69.68686523 105.53029785 -70.10107422 106.15161133 C-71.65397135 108.48095703 -73.20686849 110.81030273 -74.75976562 113.13964844 C-75.16904297 113.75356445 -75.57832031 114.36748047 -76 115 C-79.86360677 120.79541016 -83.72721354 126.59082031 -87.59082031 132.38623047 C-87.96791138 132.95186707 -88.34500244 133.51750366 -88.73352051 134.10028076 C-89.36042786 135.04064178 -89.36042786 135.04064178 -90 136 C-90.72358704 137.08538055 -90.72358704 137.08538055 -91.46179199 138.19268799 C-91.98325806 138.97488708 -92.50472412 139.75708618 -93.04199219 140.56298828 C-93.58692322 141.38038483 -94.13185425 142.19778137 -94.69329834 143.03994751 C-98.16085815 148.24128723 -98.16085815 148.24128723 -101.62841797 153.44262695 C-102.20479004 154.30718506 -102.78116211 155.17174316 -103.375 156.0625 C-103.93880371 156.90820557 -104.50260742 157.75391113 -105.08349609 158.62524414 C-105.63730957 159.45596436 -106.19112305 160.28668457 -106.76171875 161.14257812 C-113.60680135 171.41020203 -120.45188395 181.67782593 -127.29696655 191.94544983 C-127.86153061 192.79229591 -127.86153061 192.79229591 -128.4375 193.65625 C-129.57421875 195.36132812 -129.57421875 195.36132812 -130.7109375 197.06640625 C-131.08831055 197.63246582 -131.46568359 198.19852539 -131.85449219 198.78173828 C-133 200.5 -133 200.5 -134.14550781 202.21826172 C-134.52288086 202.78432129 -134.90025391 203.35038086 -135.2890625 203.93359375 C-140.19270833 211.2890625 -145.09635417 218.64453125 -150 226 C-151.01139038 227.5173877 -151.01139038 227.5173877 -152.04321289 229.06542969 C-153.31516875 230.97293966 -154.58863296 232.87944437 -155.86328125 234.78515625 C-157.41456496 237.11917178 -158.95257659 239.45939337 -160.48046875 241.80859375 C-168.13578367 253.53869935 -174.15067332 262.38355777 -188 267 C-194.92626835 267.75044826 -200.26149311 267.03323016 -206 263 C-210.74190908 258.32698443 -214.22640697 252.76766923 -217.6875 247.125 C-218.74136344 245.43177849 -219.79606829 243.73908043 -220.8515625 242.046875 C-221.37782227 241.20060547 -221.90408203 240.35433594 -222.44628906 239.48242188 C-224.77948269 235.75459145 -227.16667178 232.06278096 -229.5625 228.375 C-230.01125488 227.68301514 -230.46000977 226.99103027 -230.92236328 226.27807617 C-232.74200058 223.47342859 -234.5640481 220.6703528 -236.38671875 217.86767578 C-241.23665994 210.4076647 -246.06080491 202.93731565 -250.75 195.375 C-255.40693587 187.86735812 -260.24305144 180.48191229 -265.09375 173.09838867 C-270.60735478 164.67552198 -275.9314493 156.14070432 -281.16479492 147.54101562 C-281.75494385 146.58259766 -282.34509277 145.62417969 -282.953125 144.63671875 C-283.72897949 143.36380981 -283.72897949 143.36380981 -284.52050781 142.06518555 C-286.32519804 139.54606432 -288.02744664 138.23506574 -291.06672668 137.50047302 C-291.85915268 137.3835762 -292.65157867 137.26667938 -293.46801758 137.14624023 C-294.36937943 137.00947372 -295.27074127 136.87270721 -296.19941711 136.73179626 C-297.17130478 136.59213943 -298.14319244 136.4524826 -299.14453125 136.30859375 C-300.14707443 136.158423 -301.14961761 136.00825226 -302.18254089 135.85353088 C-305.39151977 135.37442588 -308.60192305 134.9057642 -311.8125 134.4375 C-313.96429702 134.11854144 -316.11599117 133.79888812 -318.26757812 133.47851562 C-321.30594766 133.02629256 -324.34443234 132.57511154 -327.38374329 132.1292572 C-331.93055069 131.46225403 -336.47064355 130.77890383 -341 130 C-341 129.67 -341 129.34 -341 129 C-332.48111013 128.88405059 -323.96255097 128.79525764 -315.4430666 128.74093914 C-311.48690697 128.71486618 -307.53128795 128.67951191 -303.57543945 128.62280273 C-299.75637198 128.56839821 -295.9378238 128.53856214 -292.11839867 128.52561378 C-290.66270969 128.51638881 -289.20704854 128.49837382 -287.75158119 128.47134972 C-285.70917421 128.43494257 -283.66890097 128.43005884 -281.6262207 128.43237305 C-280.46484085 128.42126999 -279.303461 128.41016693 -278.10688782 128.39872742 C-272.15572079 129.55045023 -269.13060811 134.94118036 -265.75 139.625 C-265.06421875 140.56601563 -264.3784375 141.50703125 -263.671875 142.4765625 C-262 145 -262 145 -261 148 C-256.52745503 149.49084832 -252.47254497 149.49084832 -248 148 C-247.11886421 145.93982076 -247.11886421 145.93982076 -246.58984375 143.359375 C-245.46560661 138.8273169 -244.23833553 134.35843584 -242.87890625 129.890625 C-242.31139648 128.01503906 -242.31139648 128.01503906 -241.73242188 126.1015625 C-240.95767732 123.5490819 -240.18111789 120.99716298 -239.40429688 118.4453125 C-236.75173419 109.67249059 -234.30880642 100.86922423 -232 92 C-231.34 92 -230.68 92 -230 92 C-229.79636841 93.07930786 -229.79636841 93.07930786 -229.58862305 94.18041992 C-228.5002659 99.93448078 -227.40467621 105.68714996 -226.296875 111.4375 C-226.08643555 112.53191406 -225.87599609 113.62632812 -225.65917969 114.75390625 C-224.7875788 119.04605641 -223.77427547 123.29877418 -222.7421875 127.5546875 C-221.68825119 132.4471708 -220.88997273 137.37738603 -220.0625 142.3125 C-218.92644075 149.07499059 -217.69105919 155.7440916 -215.9375 162.375 C-214.495294 167.83397504 -213.36610459 173.25007873 -212.4375 178.8125 C-210.94391678 188.60322429 -210.94391678 188.60322429 -208 198 C-204.2794164 200.48038907 -202.40203429 200.46337203 -198 200 C-193.87239885 196.91002132 -193.21963209 193.8796554 -192.25 188.9375 C-190.31329322 179.73221623 -187.64201936 170.79007935 -184.90527344 161.79467773 C-182.9858252 155.45180776 -181.21911979 149.10594057 -179.67041016 142.66186523 C-176.98013976 131.98013976 -176.98013976 131.98013976 -174 129 C-171.50541777 128.80139039 -169.11327344 128.72252647 -166.6171875 128.7265625 C-165.05598047 128.70921622 -163.49478259 128.6910315 -161.93359375 128.67211914 C-161.10843262 128.66503937 -160.28327148 128.65795959 -159.43310547 128.65066528 C-145.52011039 128.51107723 -131.80156911 127.85855832 -118 126.0625 C-117.3274115 125.97695862 -116.654823 125.89141724 -115.96185303 125.80328369 C-106.80428069 124.65751686 -106.80428069 124.65751686 -98 122 C-97.67 121.34 -97.34 120.68 -97 120 C-113.32808122 118.10577864 -129.56654145 116.51576872 -146 116 C-145.10510098 111.72860257 -142.92744525 108.69832721 -140.4375 105.1875 C-139.95933838 104.50244385 -139.48117676 103.8173877 -138.98852539 103.11157227 C-137.92061584 101.58240917 -136.85006654 100.05508729 -135.77734375 98.52929688 C-132.48342022 93.84179031 -129.21156434 89.13888847 -125.9375 84.4375 C-125.2468042 83.44693604 -124.5561084 82.45637207 -123.84448242 81.43579102 C-120.08670297 76.03680598 -116.37419743 70.61446102 -112.75 65.125 C-91.92407565 33.7154809 -91.92407565 33.7154809 -81.54296875 29.57421875 C-79.95524658 28.93830811 -79.95524658 28.93830811 -78.33544922 28.28955078 C-72.84458014 26.16667196 -67.33851798 24.09212507 -61.8125 22.0625 C-60.63574707 21.6279248 -59.45899414 21.19334961 -58.24658203 20.74560547 C-51.642351 18.31370623 -45.02269197 15.93515299 -38.375 13.625 C-33.62891261 11.97513759 -29.01021615 10.20263063 -24.45703125 8.07421875 C-5.98909091 0 -5.98909091 0 0 0 Z " fill="#04529D" transform="translate(428,104)"/>
<path d="M0 0 C14.52602084 -0.11718663 29.05196759 -0.20482684 43.57836533 -0.25906086 C50.32437767 -0.28476153 57.07009505 -0.3197542 63.81591797 -0.37719727 C70.33227906 -0.43172797 76.84833456 -0.4614653 83.36490631 -0.47438622 C85.84468645 -0.48358822 88.32445083 -0.50155732 90.80410004 -0.52865028 C107.1867662 -0.70044743 119.62714423 -0.55668138 132.60839844 10.56518555 C144.19924732 22.36546483 152.57665749 38.42257653 161.55566406 52.21582031 C163.4415534 55.11032967 165.3337147 58.00066292 167.2265625 60.890625 C168.06908066 62.19099701 168.06908066 62.19099701 168.92861938 63.51763916 C173.97312639 71.20771355 179.39016782 78.57586494 186 85 C185.13117188 85.01417969 184.26234375 85.02835937 183.3671875 85.04296875 C175.9661485 85.11531085 175.9661485 85.11531085 169.375 88 C165.48769637 92.91027827 164.40591362 98.11297834 163.109375 104.1328125 C161.958555 109.36224222 160.49596368 114.48540202 159 119.625 C158.73960937 120.52734375 158.47921875 121.4296875 158.2109375 122.359375 C157.70678122 124.10609827 157.20162167 125.85253237 156.6953125 127.59863281 C155.78860412 130.73008774 154.89334315 133.86470913 154 137 C151.69722732 134.69722732 151.51400079 133.63969454 150.8515625 130.51171875 C150.65296631 129.58866943 150.45437012 128.66562012 150.24975586 127.71459961 C149.94050171 126.2161853 149.94050171 126.2161853 149.625 124.6875 C149.40658447 123.65439697 149.18816895 122.62129395 148.96313477 121.55688477 C146.41770265 109.41206712 144.10085334 97.22541912 141.93359375 85.0078125 C141.75642822 84.01467041 141.5792627 83.02152832 141.39672852 81.99829102 C141.05818753 80.09330492 140.72379088 78.1875759 140.39428711 76.28100586 C139.57862883 71.67980167 138.50069451 67.43330171 137 63 C136.6621683 60.88184888 136.37297268 58.75554078 136.125 56.625 C135.37398108 51.11557211 134.3983124 45.72562148 133.125 40.3125 C132.97562988 39.62945801 132.82625977 38.94641602 132.67236328 38.24267578 C131.93081495 35.22411109 131.28368473 33.28140614 129.0546875 31.0703125 C126.14851204 29.55644924 124.22839487 29.52919242 121 30 C116.57144706 33.28103922 115.79585209 37.21507351 114.5625 42.3125 C114.14395097 43.93185288 113.72201636 45.5503341 113.296875 47.16796875 C113.08482422 47.9779834 112.87277344 48.78799805 112.65429688 49.62255859 C111.35511357 54.34324779 109.72214064 58.94811713 108.11328125 63.5703125 C107.13127783 66.59557217 106.33919598 69.61697891 105.59155273 72.70654297 C104.35064515 77.51755654 102.83670068 82.25244372 101.375 87 C101.05015625 88.06089844 100.7253125 89.12179688 100.390625 90.21484375 C99.59557122 92.8104605 98.79865471 95.40548943 98 98 C95.30440765 95.34948444 92.68936072 92.74135059 90.375 89.75 C88.23003634 86.79262734 88.23003634 86.79262734 85 86 C82.48945095 85.8470353 80.00111475 85.74304822 77.48828125 85.68359375 C76.76005661 85.66281265 76.03183197 85.64203156 75.28153992 85.62062073 C72.95862125 85.55531254 70.63559094 85.49632763 68.3125 85.4375 C66.73631665 85.39429695 65.16014452 85.35068208 63.58398438 85.30664062 C59.72277025 85.1996504 55.86144397 85.09833039 52 85 C51.68256836 84.34483398 51.36513672 83.68966797 51.03808594 83.01464844 C48.68515079 78.22241572 46.2951372 73.64853151 43.25 69.25 C39.21528849 63.32495143 35.32067666 57.32000204 31.45947266 51.28125 C29.7392816 48.5924803 28.01609966 45.90563658 26.29296875 43.21875 C22.85174754 37.85112536 19.41665046 32.4796176 15.98486328 27.10595703 C14.70345678 25.10078439 13.42067771 23.09648792 12.13623047 21.09326172 C10.46182198 18.48136975 8.79270519 15.86617537 7.125 13.25 C6.63153076 12.48276611 6.13806152 11.71553223 5.62963867 10.92504883 C5.17693604 10.21243896 4.7242334 9.4998291 4.2578125 8.765625 C3.67217529 7.84958496 3.67217529 7.84958496 3.07470703 6.91503906 C1.82218558 4.6831494 0.93298414 2.38070132 0 0 Z " fill="#1E9AD4" transform="translate(74,135)"/>
<path d="M0 0 C-1.55463729 3.31915062 -3.45070344 6.27634956 -5.5 9.3125 C-6.2115625 10.37082031 -6.923125 11.42914063 -7.65625 12.51953125 C-8.03652344 13.08365723 -8.41679687 13.6477832 -8.80859375 14.22900391 C-10.88286161 17.31235208 -12.94030972 20.40690385 -15 23.5 C-15.8514877 24.77739361 -16.70304956 26.0547378 -17.5546875 27.33203125 C-18.36979167 28.5546875 -19.18489583 29.77734375 -20 31 C-30.42262777 46.63394165 -40.84525553 62.2678833 -51.2678833 77.90182495 C-51.83910919 78.75866379 -51.83910919 78.75866379 -52.421875 79.6328125 C-56.94791667 86.421875 -61.47395833 93.2109375 -66 100 C-66.54527344 100.81791016 -67.09054687 101.63582031 -67.65234375 102.47851562 C-68.12800781 103.19201172 -68.60367188 103.90550781 -69.09375 104.640625 C-69.52856689 105.29313232 -69.96338379 105.94563965 -70.41137695 106.61791992 C-71.20052108 107.80108049 -71.99066876 108.98357255 -72.78198242 110.1652832 C-74.63645365 112.93694926 -76.46871042 115.72065903 -78.26953125 118.52734375 C-78.98496094 119.63207031 -79.70039063 120.73679687 -80.4375 121.875 C-81.05496094 122.84179688 -81.67242187 123.80859375 -82.30859375 124.8046875 C-84 127 -84 127 -87 128 C-88.39655459 128.08589303 -89.79685777 128.11772715 -91.19604492 128.11352539 C-92.03668991 128.11344986 -92.8773349 128.11337433 -93.74345398 128.11329651 C-94.64666885 128.10813522 -95.54988373 128.10297394 -96.48046875 128.09765625 C-97.40845779 128.0962413 -98.33644684 128.09482635 -99.29255676 128.09336853 C-102.25757058 128.08776937 -105.22250899 128.07521704 -108.1875 128.0625 C-110.19726453 128.05748489 -112.20703025 128.052922 -114.21679688 128.04882812 C-119.14456032 128.03780021 -124.07226737 128.02053617 -129 128 C-129 127.67 -129 127.34 -129 127 C-128.27409668 126.91959473 -127.54819336 126.83918945 -126.80029297 126.75634766 C-123.49106953 126.38595557 -120.18306728 126.00557411 -116.875 125.625 C-115.73289062 125.49867188 -114.59078125 125.37234375 -113.4140625 125.2421875 C-112.30546875 125.11328125 -111.196875 124.984375 -110.0546875 124.8515625 C-109.03874512 124.73635254 -108.02280273 124.62114258 -106.97607422 124.50244141 C-103.80994743 123.96791401 -100.98196149 123.19072321 -98 122 C-97.67 121.34 -97.34 120.68 -97 120 C-113.32808122 118.10577864 -129.56654145 116.51576872 -146 116 C-145.10510098 111.72860257 -142.92744525 108.69832721 -140.4375 105.1875 C-139.72025757 104.15991577 -139.72025757 104.15991577 -138.98852539 103.11157227 C-137.92061584 101.58240917 -136.85006654 100.05508729 -135.77734375 98.52929688 C-132.48342022 93.84179031 -129.21156434 89.13888847 -125.9375 84.4375 C-125.2468042 83.44693604 -124.5561084 82.45637207 -123.84448242 81.43579102 C-120.08670297 76.03680598 -116.37419743 70.61446102 -112.75 65.125 C-91.92407565 33.7154809 -91.92407565 33.7154809 -81.54296875 29.57421875 C-80.4844873 29.15027832 -79.42600586 28.72633789 -78.33544922 28.28955078 C-72.84458014 26.16667196 -67.33851798 24.09212507 -61.8125 22.0625 C-60.63574707 21.6279248 -59.45899414 21.19334961 -58.24658203 20.74560547 C-51.642351 18.31370623 -45.02269197 15.93515299 -38.375 13.625 C-33.62891261 11.97513759 -29.01021615 10.20263063 -24.45703125 8.07421875 C-5.98909091 0 -5.98909091 0 0 0 Z " fill="#DE1F2B" transform="translate(428,104)"/>
<path d="M0 0 C21.78 0 43.56 0 66 0 C66 0.33 66 0.66 66 1 C50.82 1 35.64 1 20 1 C20 1.66 20 2.32 20 3 C21.155 2.95875 22.31 2.9175 23.5 2.875 C27.94481301 2.85912567 31.73724131 3.78206895 36 5 C32.11645547 6.41965128 28.56923308 5.67152397 24.609375 5.00390625 C23.90476135 4.89151108 23.20014771 4.77911591 22.47418213 4.66331482 C20.2315112 4.30382631 17.99082118 3.93332658 15.75 3.5625 C14.22668015 3.31632815 12.70324363 3.07087712 11.1796875 2.82617188 C7.45172122 2.22579332 3.72549241 1.6155354 0 1 C0 0.67 0 0.34 0 0 Z " fill="#398EC7" transform="translate(87,233)"/>
<path d="M0 0 C-1.75 3.875 -1.75 3.875 -4 5 C-4 4.34 -4 3.68 -4 3 C-4.67546875 3.30035156 -5.3509375 3.60070312 -6.046875 3.91015625 C-6.93890625 4.29042969 -7.8309375 4.67070313 -8.75 5.0625 C-9.63171875 5.44535156 -10.5134375 5.82820313 -11.421875 6.22265625 C-14.15256309 7.04600008 -15.36901347 6.9773992 -18 6 C-16.06305322 5.18618205 -14.12542289 4.37399084 -12.1875 3.5625 C-11.10855469 3.11003906 -10.02960938 2.65757813 -8.91796875 2.19140625 C-5.73443594 0.89157023 -3.45647675 0 0 0 Z " fill="#EF6268" transform="translate(428,104)"/>
<path d="M0 0 C0 0.66 0 1.32 0 2 C-0.99 2 -1.98 2 -3 2 C-3.25523437 2.59296875 -3.51046875 3.1859375 -3.7734375 3.796875 C-5.11816498 6.21224538 -6.49214367 7.51211706 -8.625 9.25 C-9.25664062 9.77078125 -9.88828125 10.2915625 -10.5390625 10.828125 C-11.02117187 11.21484375 -11.50328125 11.6015625 -12 12 C-12.66 11.67 -13.32 11.34 -14 11 C-12.37807179 9.35113941 -10.75236228 7.7059976 -9.125 6.0625 C-8.22007812 5.14597656 -7.31515625 4.22945312 -6.3828125 3.28515625 C-2.95726496 0 -2.95726496 0 0 0 Z " fill="#EC434C" transform="translate(345,135)"/>
<path d="M0 0 C0 0.33 0 0.66 0 1 C-0.928125 1.268125 -1.85625 1.53625 -2.8125 1.8125 C-7.1857493 3.44174974 -8.44676119 5.17014178 -11 9 C-10.51780822 3.57534247 -10.51780822 3.57534247 -8.3125 1.125 C-5.40422845 -0.28983481 -3.19384754 -0.21776233 0 0 Z " fill="#D4EDF7" transform="translate(201,164)"/>
<path d="M0 0 C3.25524265 3.02272532 5.61820737 6.25718301 8 10 C7.67 10.66 7.34 11.32 7 12 C4.04485124 9.24865461 1.8475191 6.60266225 0 3 C0 2.01 0 1.02 0 0 Z " fill="#59BEE7" transform="translate(211,152)"/>
<path d="M0 0 C1.32 0.33 2.64 0.66 4 1 C4.12375 1.721875 4.2475 2.44375 4.375 3.1875 C4.9904931 5.95721894 5.88444374 8.3970354 7 11 C4.0444623 8.24829249 1.88436685 5.58029701 0 2 C0 1.34 0 0.68 0 0 Z " fill="#52C2ED" transform="translate(74,135)"/>
<path d="M0 0 C-4.22949995 2.41685712 -7.12335991 3.34833144 -12 3 C-4.82142857 -1.78571429 -4.82142857 -1.78571429 0 0 Z " fill="#EF5B63" transform="translate(410,112)"/>
<path d="M0 0 C0 0.66 0 1.32 0 2 C-2.64 2 -5.28 2 -8 2 C-8 1.34 -8 0.68 -8 0 C-4.94736336 -0.98120464 -3.05263664 -0.98120464 0 0 Z " fill="#B12332" transform="translate(321,230)"/>
</svg>
